<mxfile host="app.diagrams.net" agent="Mozilla/5.0 (Windows NT 10.0; Win64; x64) AppleWebKit/537.36 (KHTML, like Gecko) Chrome/129.0.0.0 Safari/537.36" version="24.7.17">
  <diagram name="第1頁" id="5V1KUewIpyeK_HBP2eAr">
    <mxGraphModel grid="1" page="1" gridSize="10" guides="1" tooltips="1" connect="1" arrows="1" fold="1" pageScale="1" pageWidth="827" pageHeight="1169" math="0" shadow="0">
      <root>
        <mxCell id="0" />
        <mxCell id="1" parent="0" />
        <mxCell id="I5ciXV8lmtNKJq-d_JrU-1" value="client" style="shape=umlActor;verticalLabelPosition=bottom;verticalAlign=top;html=1;" vertex="1" parent="1">
          <mxGeometry x="200" y="1820" width="30" height="60" as="geometry" />
        </mxCell>
        <mxCell id="I5ciXV8lmtNKJq-d_JrU-2" value="&lt;b&gt;&lt;font style=&quot;font-size: 12px;&quot;&gt;Client Device&lt;/font&gt;&lt;/b&gt;" style="verticalAlign=top;align=center;spacingTop=8;spacingLeft=2;spacingRight=12;shape=cube;size=10;direction=south;fontStyle=4;html=1;whiteSpace=wrap;" vertex="1" parent="1">
          <mxGeometry x="90" y="1960" width="250" height="120" as="geometry" />
        </mxCell>
        <mxCell id="I5ciXV8lmtNKJq-d_JrU-3" style="edgeStyle=orthogonalEdgeStyle;rounded=0;orthogonalLoop=1;jettySize=auto;html=1;" edge="1" parent="1" target="I5ciXV8lmtNKJq-d_JrU-9">
          <mxGeometry relative="1" as="geometry">
            <mxPoint x="215" y="2080" as="sourcePoint" />
          </mxGeometry>
        </mxCell>
        <mxCell id="I5ciXV8lmtNKJq-d_JrU-4" value="&lt;font style=&quot;font-size: 15px;&quot;&gt;HTTPS請求&lt;/font&gt;" style="edgeLabel;html=1;align=center;verticalAlign=middle;resizable=0;points=[];" connectable="0" vertex="1" parent="I5ciXV8lmtNKJq-d_JrU-3">
          <mxGeometry x="-0.2564" y="-2" relative="1" as="geometry">
            <mxPoint x="47" y="17" as="offset" />
          </mxGeometry>
        </mxCell>
        <mxCell id="I5ciXV8lmtNKJq-d_JrU-5" value="&lt;p style=&quot;margin:0px;margin-top:6px;text-align:center;&quot;&gt;&lt;b&gt;&lt;br&gt;&lt;/b&gt;&lt;/p&gt;&lt;p style=&quot;margin:0px;margin-top:6px;text-align:center;&quot;&gt;Chrome Browser&lt;/p&gt;&lt;p style=&quot;margin:0px;margin-left:8px;&quot;&gt;&lt;br&gt;&lt;/p&gt;" style="align=left;overflow=fill;html=1;dropTarget=0;whiteSpace=wrap;" vertex="1" parent="1">
          <mxGeometry x="125" y="2000" width="180" height="60" as="geometry" />
        </mxCell>
        <mxCell id="I5ciXV8lmtNKJq-d_JrU-6" value="" style="shape=component;jettyWidth=8;jettyHeight=4;" vertex="1" parent="I5ciXV8lmtNKJq-d_JrU-5">
          <mxGeometry x="1" width="20" height="20" relative="1" as="geometry">
            <mxPoint x="-24" y="4" as="offset" />
          </mxGeometry>
        </mxCell>
        <mxCell id="I5ciXV8lmtNKJq-d_JrU-7" style="edgeStyle=orthogonalEdgeStyle;rounded=0;orthogonalLoop=1;jettySize=auto;html=1;entryX=-0.011;entryY=0.502;entryDx=0;entryDy=0;entryPerimeter=0;" edge="1" parent="1" source="I5ciXV8lmtNKJq-d_JrU-1" target="I5ciXV8lmtNKJq-d_JrU-2">
          <mxGeometry relative="1" as="geometry" />
        </mxCell>
        <mxCell id="I5ciXV8lmtNKJq-d_JrU-8" style="edgeStyle=orthogonalEdgeStyle;rounded=0;orthogonalLoop=1;jettySize=auto;html=1;" edge="1" parent="1" source="I5ciXV8lmtNKJq-d_JrU-9" target="I5ciXV8lmtNKJq-d_JrU-10">
          <mxGeometry relative="1" as="geometry" />
        </mxCell>
        <mxCell id="I5ciXV8lmtNKJq-d_JrU-9" value="&lt;b&gt;&lt;font style=&quot;font-size: 12px;&quot;&gt;Server&lt;/font&gt;&lt;/b&gt;" style="verticalAlign=top;align=center;spacingTop=8;spacingLeft=2;spacingRight=12;shape=cube;size=10;direction=south;fontStyle=4;html=1;whiteSpace=wrap;" vertex="1" parent="1">
          <mxGeometry x="90" y="2170" width="250" height="410" as="geometry" />
        </mxCell>
        <mxCell id="I5ciXV8lmtNKJq-d_JrU-10" value="&lt;b&gt;&lt;font style=&quot;font-size: 12px;&quot;&gt;Application&lt;/font&gt;&lt;/b&gt;" style="verticalAlign=top;align=center;spacingTop=8;spacingLeft=2;spacingRight=12;shape=cube;size=10;direction=south;fontStyle=4;html=1;whiteSpace=wrap;" vertex="1" parent="1">
          <mxGeometry x="520" y="2210" width="250" height="120" as="geometry" />
        </mxCell>
        <mxCell id="I5ciXV8lmtNKJq-d_JrU-11" value="&lt;div style=&quot;font-size: 15px;&quot;&gt;&lt;font style=&quot;font-size: 15px;&quot;&gt;&lt;br&gt;&lt;/font&gt;&lt;/div&gt;&lt;font style=&quot;font-size: 15px;&quot;&gt;MySQL Database&lt;/font&gt;" style="strokeWidth=2;html=1;shape=mxgraph.flowchart.database;whiteSpace=wrap;" vertex="1" parent="1">
          <mxGeometry x="550" y="2430" width="190" height="60" as="geometry" />
        </mxCell>
        <mxCell id="I5ciXV8lmtNKJq-d_JrU-12" style="edgeStyle=orthogonalEdgeStyle;rounded=0;orthogonalLoop=1;jettySize=auto;html=1;exitX=0;exitY=0;exitDx=120;exitDy=130;exitPerimeter=0;entryX=0.471;entryY=-0.059;entryDx=0;entryDy=0;entryPerimeter=0;" edge="1" parent="1" source="I5ciXV8lmtNKJq-d_JrU-10" target="I5ciXV8lmtNKJq-d_JrU-11">
          <mxGeometry relative="1" as="geometry">
            <mxPoint x="640" y="2390" as="targetPoint" />
          </mxGeometry>
        </mxCell>
        <mxCell id="I5ciXV8lmtNKJq-d_JrU-13" value="&lt;p style=&quot;margin:0px;margin-top:6px;text-align:center;&quot;&gt;Web Server&lt;/p&gt;" style="align=left;overflow=fill;html=1;dropTarget=0;whiteSpace=wrap;" vertex="1" parent="1">
          <mxGeometry x="115" y="2210" width="190" height="30" as="geometry" />
        </mxCell>
        <mxCell id="I5ciXV8lmtNKJq-d_JrU-14" value="" style="shape=component;jettyWidth=8;jettyHeight=4;" vertex="1" parent="I5ciXV8lmtNKJq-d_JrU-13">
          <mxGeometry x="1" width="20" height="20" relative="1" as="geometry">
            <mxPoint x="-24" y="4" as="offset" />
          </mxGeometry>
        </mxCell>
        <mxCell id="I5ciXV8lmtNKJq-d_JrU-15" value="&lt;span style=&quot;font-size: 40px;&quot;&gt;&lt;b&gt;佈署圖&lt;/b&gt;&lt;/span&gt;" style="text;html=1;align=center;verticalAlign=middle;resizable=0;points=[];autosize=1;strokeColor=none;fillColor=none;" vertex="1" parent="1">
          <mxGeometry x="350" y="2590" width="140" height="60" as="geometry" />
        </mxCell>
        <mxCell id="I5ciXV8lmtNKJq-d_JrU-16" value="&lt;p style=&quot;margin:0px;margin-top:6px;text-align:center;&quot;&gt;express.js&lt;/p&gt;" style="align=left;overflow=fill;html=1;dropTarget=0;whiteSpace=wrap;" vertex="1" parent="1">
          <mxGeometry x="115" y="2260" width="190" height="30" as="geometry" />
        </mxCell>
        <mxCell id="I5ciXV8lmtNKJq-d_JrU-17" value="" style="shape=component;jettyWidth=8;jettyHeight=4;" vertex="1" parent="I5ciXV8lmtNKJq-d_JrU-16">
          <mxGeometry x="1" width="20" height="20" relative="1" as="geometry">
            <mxPoint x="-24" y="4" as="offset" />
          </mxGeometry>
        </mxCell>
        <mxCell id="I5ciXV8lmtNKJq-d_JrU-18" value="&lt;p style=&quot;margin:0px;margin-top:6px;text-align:center;&quot;&gt;vue.js&lt;br&gt;&lt;/p&gt;" style="align=left;overflow=fill;html=1;dropTarget=0;whiteSpace=wrap;" vertex="1" parent="1">
          <mxGeometry x="115" y="2310" width="190" height="30" as="geometry" />
        </mxCell>
        <mxCell id="I5ciXV8lmtNKJq-d_JrU-19" value="" style="shape=component;jettyWidth=8;jettyHeight=4;" vertex="1" parent="I5ciXV8lmtNKJq-d_JrU-18">
          <mxGeometry x="1" width="20" height="20" relative="1" as="geometry">
            <mxPoint x="-24" y="4" as="offset" />
          </mxGeometry>
        </mxCell>
        <mxCell id="I5ciXV8lmtNKJq-d_JrU-20" value="&lt;p style=&quot;margin:0px;margin-top:6px;text-align:center;&quot;&gt;vite vue&lt;/p&gt;" style="align=left;overflow=fill;html=1;dropTarget=0;whiteSpace=wrap;" vertex="1" parent="1">
          <mxGeometry x="115" y="2360" width="190" height="30" as="geometry" />
        </mxCell>
        <mxCell id="I5ciXV8lmtNKJq-d_JrU-21" value="" style="shape=component;jettyWidth=8;jettyHeight=4;" vertex="1" parent="I5ciXV8lmtNKJq-d_JrU-20">
          <mxGeometry x="1" width="20" height="20" relative="1" as="geometry">
            <mxPoint x="-24" y="4" as="offset" />
          </mxGeometry>
        </mxCell>
        <mxCell id="I5ciXV8lmtNKJq-d_JrU-22" value="&lt;p style=&quot;margin:0px;margin-top:6px;text-align:center;&quot;&gt;axios&amp;nbsp;&amp;nbsp;&lt;/p&gt;" style="align=left;overflow=fill;html=1;dropTarget=0;whiteSpace=wrap;" vertex="1" parent="1">
          <mxGeometry x="115" y="2410" width="190" height="30" as="geometry" />
        </mxCell>
        <mxCell id="I5ciXV8lmtNKJq-d_JrU-23" value="" style="shape=component;jettyWidth=8;jettyHeight=4;" vertex="1" parent="I5ciXV8lmtNKJq-d_JrU-22">
          <mxGeometry x="1" width="20" height="20" relative="1" as="geometry">
            <mxPoint x="-24" y="4" as="offset" />
          </mxGeometry>
        </mxCell>
        <mxCell id="I5ciXV8lmtNKJq-d_JrU-24" value="&lt;p style=&quot;margin:0px;margin-top:6px;text-align:center;&quot;&gt;bcrypt&amp;nbsp;&lt;/p&gt;" style="align=left;overflow=fill;html=1;dropTarget=0;whiteSpace=wrap;" vertex="1" parent="1">
          <mxGeometry x="115" y="2460" width="190" height="30" as="geometry" />
        </mxCell>
        <mxCell id="I5ciXV8lmtNKJq-d_JrU-25" value="" style="shape=component;jettyWidth=8;jettyHeight=4;" vertex="1" parent="I5ciXV8lmtNKJq-d_JrU-24">
          <mxGeometry x="1" width="20" height="20" relative="1" as="geometry">
            <mxPoint x="-24" y="4" as="offset" />
          </mxGeometry>
        </mxCell>
        <mxCell id="I5ciXV8lmtNKJq-d_JrU-26" value="&lt;p style=&quot;margin:0px;margin-top:6px;text-align:center;&quot;&gt;mysql2&amp;nbsp;&lt;/p&gt;" style="align=left;overflow=fill;html=1;dropTarget=0;whiteSpace=wrap;" vertex="1" parent="1">
          <mxGeometry x="115" y="2510" width="190" height="30" as="geometry" />
        </mxCell>
        <mxCell id="I5ciXV8lmtNKJq-d_JrU-27" value="" style="shape=component;jettyWidth=8;jettyHeight=4;" vertex="1" parent="I5ciXV8lmtNKJq-d_JrU-26">
          <mxGeometry x="1" width="20" height="20" relative="1" as="geometry">
            <mxPoint x="-24" y="4" as="offset" />
          </mxGeometry>
        </mxCell>
        <mxCell id="bhSX44Y8v3ie6I2OUKyF-1" value="&lt;p style=&quot;margin:0px;margin-top:6px;text-align:center;&quot;&gt;&lt;b&gt;&lt;br&gt;&lt;/b&gt;&lt;/p&gt;&lt;p style=&quot;margin:0px;margin-top:6px;text-align:center;&quot;&gt;house&lt;/p&gt;&lt;p style=&quot;margin:0px;margin-left:8px;&quot;&gt;&lt;br&gt;&lt;/p&gt;" style="align=left;overflow=fill;html=1;dropTarget=0;whiteSpace=wrap;" vertex="1" parent="1">
          <mxGeometry x="555" y="2250" width="180" height="60" as="geometry" />
        </mxCell>
        <mxCell id="bhSX44Y8v3ie6I2OUKyF-2" value="" style="shape=component;jettyWidth=8;jettyHeight=4;" vertex="1" parent="bhSX44Y8v3ie6I2OUKyF-1">
          <mxGeometry x="1" width="20" height="20" relative="1" as="geometry">
            <mxPoint x="-24" y="4" as="offset" />
          </mxGeometry>
        </mxCell>
      </root>
    </mxGraphModel>
  </diagram>
</mxfile>
